<?xml version="1.0" encoding="UTF-8" standalone="no"?>
<svg width="800" height="600" xmlns="http://www.w3.org/2000/svg">
  <!-- Application Architecture Diagram -->
  <defs>
    <style>
      text { font-family: Arial, sans-serif; }
      .title { font-size: 16px; font-weight: bold; }
      .module-title { font-size: 14px; font-weight: bold; }
      .label { font-size: 12px; }
      .box { stroke-width: 2; opacity: 0.9; }
      .arrow { stroke: #7f8c8d; stroke-width: 2; marker-end: url(#arrowhead); }
      .frontend { fill: #3498db; stroke: #2980b9; }
      .backend { fill: #2ecc71; stroke: #27ae60; }
      .database { fill: #e74c3c; stroke: #c0392b; }
      .external { fill: #9b59b6; stroke: #8e44ad; }
      .auth { fill: #f39c12; stroke: #d35400; }
    </style>
    
    <marker id="arrowhead" markerWidth="10" markerHeight="7" refX="10" refY="3.5" orient="auto">
      <polygon points="0 0, 10 3.5, 0 7" fill="#7f8c8d" />
    </marker>
  </defs>
  
  <rect width="800" height="600" fill="#f9f9f9"/>
  <text x="400" y="30" text-anchor="middle" class="title" fill="#2c3e50">AI Learning Platform Architecture</text>
  
  <!-- Core Application -->
  <g transform="translate(300, 70)">
    <rect width="200" height="100" rx="5" class="box backend"/>
    <text x="100" y="30" text-anchor="middle" class="module-title" fill="white">Flask Application</text>
    <text x="100" y="50" text-anchor="middle" class="label" fill="white">app/__init__.py</text>
    <text x="100" y="70" text-anchor="middle" class="label" fill="white">App Configuration</text>
    <text x="100" y="90" text-anchor="middle" class="label" fill="white">Blueprint Registration</text>
  </g>
  
  <!-- Database -->
  <g transform="translate(300, 470)">
    <rect width="200" height="80" rx="5" class="box database"/>
    <text x="100" y="30" text-anchor="middle" class="module-title" fill="white">PostgreSQL Database</text>
    <text x="100" y="50" text-anchor="middle" class="label" fill="white">SQLAlchemy ORM</text>
    <text x="100" y="70" text-anchor="middle" class="label" fill="white">Data Persistence</text>
  </g>
  
  <!-- Models -->
  <g transform="translate(550, 470)">
    <rect width="180" height="80" rx="5" class="box backend"/>
    <text x="90" y="30" text-anchor="middle" class="module-title" fill="white">Models</text>
    <text x="90" y="50" text-anchor="middle" class="label" fill="white">app/models/</text>
    <text x="90" y="70" text-anchor="middle" class="label" fill="white">Data Structures</text>
  </g>
  
  <!-- Client Browser -->
  <g transform="translate(300, 10)">
    <rect width="200" height="30" rx="5" class="box frontend"/>
    <text x="100" y="20" text-anchor="middle" class="label" fill="white">Client Browser</text>
  </g>
  
  <!-- Core Module -->
  <g transform="translate(50, 200)">
    <rect width="180" height="80" rx="5" class="box backend"/>
    <text x="90" y="30" text-anchor="middle" class="module-title" fill="white">Core Module</text>
    <text x="90" y="50" text-anchor="middle" class="label" fill="white">app/core/</text>
    <text x="90" y="70" text-anchor="middle" class="label" fill="white">Main Functionality</text>
  </g>
  
  <!-- Auth Module -->
  <g transform="translate(50, 310)">
    <rect width="180" height="80" rx="5" class="box auth"/>
    <text x="90" y="30" text-anchor="middle" class="module-title" fill="white">Auth Module</text>
    <text x="90" y="50" text-anchor="middle" class="label" fill="white">app/auth/</text>
    <text x="90" y="70" text-anchor="middle" class="label" fill="white">Authentication, 2FA</text>
  </g>
  
  <!-- Admin Module -->
  <g transform="translate(570, 200)">
    <rect width="180" height="80" rx="5" class="box backend"/>
    <text x="90" y="30" text-anchor="middle" class="module-title" fill="white">Admin Module</text>
    <text x="90" y="50" text-anchor="middle" class="label" fill="white">app/admin/</text>
    <text x="90" y="70" text-anchor="middle" class="label" fill="white">Admin Controls</text>
  </g>
  
  <!-- API Module -->
  <g transform="translate(570, 310)">
    <rect width="180" height="80" rx="5" class="box backend"/>
    <text x="90" y="30" text-anchor="middle" class="module-title" fill="white">API Module</text>
    <text x="90" y="50" text-anchor="middle" class="label" fill="white">app/api/</text>
    <text x="90" y="70" text-anchor="middle" class="label" fill="white">API Endpoints</text>
  </g>
  
  <!-- Templates -->
  <g transform="translate(50, 420)">
    <rect width="180" height="80" rx="5" class="box frontend"/>
    <text x="90" y="30" text-anchor="middle" class="module-title" fill="white">Templates</text>
    <text x="90" y="50" text-anchor="middle" class="label" fill="white">templates/</text>
    <text x="90" y="70" text-anchor="middle" class="label" fill="white">Jinja2 HTML Templates</text>
  </g>
  
  <!-- Static Assets -->
  <g transform="translate(50, 100)">
    <rect width="180" height="80" rx="5" class="box frontend"/>
    <text x="90" y="30" text-anchor="middle" class="module-title" fill="white">Static Assets</text>
    <text x="90" y="50" text-anchor="middle" class="label" fill="white">static/</text>
    <text x="90" y="70" text-anchor="middle" class="label" fill="white">CSS, JS, Images</text>
  </g>
  
  <!-- Utils Module -->
  <g transform="translate(570, 100)">
    <rect width="180" height="80" rx="5" class="box backend"/>
    <text x="90" y="30" text-anchor="middle" class="module-title" fill="white">Utils Module</text>
    <text x="90" y="50" text-anchor="middle" class="label" fill="white">app/utils/</text>
    <text x="90" y="70" text-anchor="middle" class="label" fill="white">Helper Functions</text>
  </g>
  
  <!-- OpenAI API -->
  <g transform="translate(570, 390)">
    <rect width="180" height="50" rx="5" class="box external"/>
    <text x="90" y="30" text-anchor="middle" class="module-title" fill="white">OpenAI API</text>
  </g>
  
  <!-- Main Entry Point -->
  <g transform="translate(300, 220)">
    <rect width="200" height="60" rx="5" class="box backend"/>
    <text x="100" y="25" text-anchor="middle" class="module-title" fill="white">Main Entry Point</text>
    <text x="100" y="45" text-anchor="middle" class="label" fill="white">main.py</text>
  </g>
  
  <!-- Business Logic Layer -->
  <g transform="translate(300, 310)">
    <rect width="200" height="120" rx="5" class="box backend"/>
    <text x="100" y="30" text-anchor="middle" class="module-title" fill="white">Business Logic</text>
    <text x="100" y="50" text-anchor="middle" class="label" fill="white">Course Management</text>
    <text x="100" y="70" text-anchor="middle" class="label" fill="white">User Management</text>
    <text x="100" y="90" text-anchor="middle" class="label" fill="white">Forum Management</text>
    <text x="100" y="110" text-anchor="middle" class="label" fill="white">Document Analysis</text>
  </g>
  
  <!-- Connections -->
  <!-- Client to Flask -->
  <line x1="400" y1="40" x2="400" y2="70" class="arrow" />
  
  <!-- Flask to Main -->
  <line x1="400" y1="170" x2="400" y2="220" class="arrow" />
  
  <!-- Main to Business Logic -->
  <line x1="400" y1="280" x2="400" y2="310" class="arrow" />
  
  <!-- Business Logic to Database -->
  <line x1="400" y1="430" x2="400" y2="470" class="arrow" />
  
  <!-- Flask to Modules -->
  <line x1="300" y1="120" x2="230" y2="130" class="arrow" />
  <line x1="500" y1="120" x2="570" y2="130" class="arrow" />
  
  <!-- Modules to Business Logic -->
  <line x1="230" y1="240" x2="300" y2="330" class="arrow" />
  <line x1="230" y1="350" x2="300" y2="370" class="arrow" />
  <line x1="570" y1="240" x2="500" y2="330" class="arrow" />
  <line x1="570" y1="350" x2="500" y2="370" class="arrow" />
  
  <!-- Business Logic to API -->
  <line x1="500" y1="410" x2="570" y2="420" class="arrow" />
  
  <!-- Business Logic to Templates -->
  <line x1="300" y1="410" x2="230" y2="450" class="arrow" />
  
  <!-- Models to Database -->
  <line x1="550" y1="510" x2="500" y2="510" class="arrow" />
  
  <!-- Legend -->
  <g transform="translate(620, 10)">
    <rect width="150" height="80" fill="white" stroke="#95a5a6"/>
    <text x="75" y="20" text-anchor="middle" class="module-title" fill="#2c3e50">Legend</text>
    
    <rect x="10" y="30" width="15" height="15" class="frontend" />
    <text x="35" y="42" class="label" fill="#2c3e50">Frontend</text>
    
    <rect x="10" y="50" width="15" height="15" class="backend" />
    <text x="35" y="62" class="label" fill="#2c3e50">Backend</text>
    
    <rect x="80" y="30" width="15" height="15" class="database" />
    <text x="105" y="42" class="label" fill="#2c3e50">Database</text>
    
    <rect x="80" y="50" width="15" height="15" class="external" />
    <text x="105" y="62" class="label" fill="#2c3e50">External</text>
  </g>
</svg>