<?xml version="1.0" encoding="UTF-8" standalone="no"?>
<svg width="800" height="600" xmlns="http://www.w3.org/2000/svg">
  <!-- Database Schema Diagram -->
  <defs>
    <style>
      text { font-family: Arial, sans-serif; }
      .title { font-size: 16px; font-weight: bold; }
      .label { font-size: 12px; }
      .table { fill: #2c3e50; stroke: #34495e; stroke-width: 2; }
      .header { fill: #3498db; }
      .field { fill: #ecf0f1; }
      .relation { stroke: #95a5a6; stroke-width: 2; }
      .key { fill: #e74c3c; }
    </style>
  </defs>
  
  <rect width="800" height="600" fill="#f9f9f9"/>
  <text x="400" y="30" text-anchor="middle" class="title" fill="#2c3e50">AI Learning Platform - Database Schema</text>
  
  <!-- Users Table -->
  <g transform="translate(50, 70)">
    <rect width="180" height="180" rx="5" class="table"/>
    <rect width="180" height="30" rx="5" class="header"/>
    <text x="90" y="20" text-anchor="middle" class="title" fill="white">Users</text>
    
    <rect y="30" width="180" height="20" class="field"/>
    <text x="10" y="45" class="label" fill="#2c3e50">id (PK)</text>
    <circle cx="170" cy="40" r="5" class="key"/>
    
    <rect y="50" width="180" height="20" class="field"/>
    <text x="10" y="65" class="label" fill="#2c3e50">username</text>
    
    <rect y="70" width="180" height="20" class="field"/>
    <text x="10" y="85" class="label" fill="#2c3e50">email</text>
    
    <rect y="90" width="180" height="20" class="field"/>
    <text x="10" y="105" class="label" fill="#2c3e50">password_hash</text>
    
    <rect y="110" width="180" height="20" class="field"/>
    <text x="10" y="125" class="label" fill="#2c3e50">is_admin</text>
    
    <rect y="130" width="180" height="20" class="field"/>
    <text x="10" y="145" class="label" fill="#2c3e50">is_approved</text>
    
    <rect y="150" width="180" height="20" class="field"/>
    <text x="10" y="165" class="label" fill="#2c3e50">is_2fa_enabled</text>
  </g>
  
  <!-- Interests Table -->
  <g transform="translate(300, 70)">
    <rect width="180" height="100" rx="5" class="table"/>
    <rect width="180" height="30" rx="5" class="header"/>
    <text x="90" y="20" text-anchor="middle" class="title" fill="white">Interests</text>
    
    <rect y="30" width="180" height="20" class="field"/>
    <text x="10" y="45" class="label" fill="#2c3e50">id (PK)</text>
    <circle cx="170" cy="40" r="5" class="key"/>
    
    <rect y="50" width="180" height="20" class="field"/>
    <text x="10" y="65" class="label" fill="#2c3e50">name</text>
    
    <rect y="70" width="180" height="20" class="field"/>
    <text x="10" y="85" class="label" fill="#2c3e50">description</text>
  </g>
  
  <!-- Courses Table -->
  <g transform="translate(550, 70)">
    <rect width="180" height="150" rx="5" class="table"/>
    <rect width="180" height="30" rx="5" class="header"/>
    <text x="90" y="20" text-anchor="middle" class="title" fill="white">Courses</text>
    
    <rect y="30" width="180" height="20" class="field"/>
    <text x="10" y="45" class="label" fill="#2c3e50">id (PK)</text>
    <circle cx="170" cy="40" r="5" class="key"/>
    
    <rect y="50" width="180" height="20" class="field"/>
    <text x="10" y="65" class="label" fill="#2c3e50">title</text>
    
    <rect y="70" width="180" height="20" class="field"/>
    <text x="10" y="85" class="label" fill="#2c3e50">description</text>
    
    <rect y="90" width="180" height="20" class="field"/>
    <text x="10" y="105" class="label" fill="#2c3e50">cover_image_url</text>
    
    <rect y="110" width="180" height="20" class="field"/>
    <text x="10" y="125" class="label" fill="#2c3e50">created_by (FK)</text>
  </g>
  
  <!-- Lessons Table -->
  <g transform="translate(550, 280)">
    <rect width="180" height="150" rx="5" class="table"/>
    <rect width="180" height="30" rx="5" class="header"/>
    <text x="90" y="20" text-anchor="middle" class="title" fill="white">Lessons</text>
    
    <rect y="30" width="180" height="20" class="field"/>
    <text x="10" y="45" class="label" fill="#2c3e50">id (PK)</text>
    <circle cx="170" cy="40" r="5" class="key"/>
    
    <rect y="50" width="180" height="20" class="field"/>
    <text x="10" y="65" class="label" fill="#2c3e50">title</text>
    
    <rect y="70" width="180" height="20" class="field"/>
    <text x="10" y="85" class="label" fill="#2c3e50">content</text>
    
    <rect y="90" width="180" height="20" class="field"/>
    <text x="10" y="105" class="label" fill="#2c3e50">course_id (FK)</text>
    
    <rect y="110" width="180" height="20" class="field"/>
    <text x="10" y="125" class="label" fill="#2c3e50">order</text>
  </g>
  
  <!-- Forum Topics Table -->
  <g transform="translate(50, 280)">
    <rect width="180" height="150" rx="5" class="table"/>
    <rect width="180" height="30" rx="5" class="header"/>
    <text x="90" y="20" text-anchor="middle" class="title" fill="white">Forum Topics</text>
    
    <rect y="30" width="180" height="20" class="field"/>
    <text x="10" y="45" class="label" fill="#2c3e50">id (PK)</text>
    <circle cx="170" cy="40" r="5" class="key"/>
    
    <rect y="50" width="180" height="20" class="field"/>
    <text x="10" y="65" class="label" fill="#2c3e50">title</text>
    
    <rect y="70" width="180" height="20" class="field"/>
    <text x="10" y="85" class="label" fill="#2c3e50">content</text>
    
    <rect y="90" width="180" height="20" class="field"/>
    <text x="10" y="105" class="label" fill="#2c3e50">user_id (FK)</text>
    
    <rect y="110" width="180" height="20" class="field"/>
    <text x="10" y="125" class="label" fill="#2c3e50">course_id (FK)</text>
  </g>
  
  <!-- Forum Replies Table -->
  <g transform="translate(300, 280)">
    <rect width="180" height="120" rx="5" class="table"/>
    <rect width="180" height="30" rx="5" class="header"/>
    <text x="90" y="20" text-anchor="middle" class="title" fill="white">Forum Replies</text>
    
    <rect y="30" width="180" height="20" class="field"/>
    <text x="10" y="45" class="label" fill="#2c3e50">id (PK)</text>
    <circle cx="170" cy="40" r="5" class="key"/>
    
    <rect y="50" width="180" height="20" class="field"/>
    <text x="10" y="65" class="label" fill="#2c3e50">content</text>
    
    <rect y="70" width="180" height="20" class="field"/>
    <text x="10" y="85" class="label" fill="#2c3e50">user_id (FK)</text>
    
    <rect y="90" width="180" height="20" class="field"/>
    <text x="10" y="105" class="label" fill="#2c3e50">topic_id (FK)</text>
  </g>
  
  <!-- Relationships -->
  <!-- Users to Forum Topics -->
  <path d="M140,250 L140,280" class="relation" fill="none"/>
  
  <!-- Users to Courses (created_by) -->
  <path d="M230,120 L550,120" class="relation" fill="none"/>
  
  <!-- Course to Lessons -->
  <path d="M640,220 L640,280" class="relation" fill="none"/>
  
  <!-- Topics to Replies -->
  <path d="M230,330 L300,330" class="relation" fill="none"/>
  
  <!-- Users to Replies -->
  <path d="M140,250 C140,260 250,330 300,330" class="relation" fill="none"/>
  
  <!-- Course to Topics -->
  <path d="M550,160 C500,160 230,280 230,280" class="relation" fill="none"/>
  
  <!-- Legend -->
  <g transform="translate(600, 450)">
    <rect width="150" height="100" fill="white" stroke="#95a5a6"/>
    <text x="75" y="20" text-anchor="middle" class="title" fill="#2c3e50">Legend</text>
    
    <circle cx="20" cy="40" r="5" class="key"/>
    <text x="30" y="45" class="label" fill="#2c3e50">Primary Key</text>
    
    <line x1="10" y1="65" x2="30" y2="65" class="relation"/>
    <text x="40" y="70" class="label" fill="#2c3e50">Relationship</text>
    
    <text x="20" y="90" class="label" fill="#2c3e50">FK: Foreign Key</text>
  </g>
</svg>